<?xml version="1.0" encoding="iso-8859-1"?>
<!-- Generator: Adobe Illustrator 19.0.0, SVG Export Plug-In . SVG Version: 6.00 Build 0)  -->
<svg version="1.1" id="Layer_1" xmlns="http://www.w3.org/2000/svg" xmlns:xlink="http://www.w3.org/1999/xlink" x="0px" y="0px"
	 viewBox="0 0 512 512" style="enable-background:new 0 0 512 512;" xml:space="preserve">
<path style="fill:#EF9D3C;" d="M403.507,8.017H12.292v222.33v273.637h168.885c53.13,0,96.2-43.07,96.2-96.2v-19.24
	c0-35.42,28.714-64.134,64.134-64.134h94.063c35.42,0,64.134-28.714,64.134-64.134v-29.929V104.217
	C499.708,51.087,456.638,8.017,403.507,8.017z"/>
<rect x="80.701" y="238.363" style="fill:#E2771E;" width="410.455" height="13.361"/>
<polygon style="fill:#E5E5E5;" points="445.194,230.347 411.996,208.889 439.739,182.577 402.962,172.122 423.55,139.904 
	385.336,138.6 397.613,102.39 360.191,110.236 363.493,72.143 329.024,88.685 323.108,50.91 293.627,75.255 278.79,40.018 
	256,70.725 233.21,40.018 218.374,75.255 188.893,50.909 182.977,88.684 148.509,72.141 151.81,110.234 114.389,102.388 
	126.665,138.598 88.451,139.903 109.039,172.121 72.261,182.576 100.004,208.889 66.806,230.347 "/>
<path style="fill:#B2B2B2;" d="M256,110.63c-66.012,0-119.716,53.704-119.716,119.716h239.432
	C375.716,164.335,322.012,110.63,256,110.63z"/>
<path style="fill:#62C9CC;" d="M343.649,227.853c0-48.407-39.242-87.649-87.649-87.649s-87.649,39.242-87.649,87.649
	c0,0.836,0.04,1.663,0.063,2.494h175.172C343.61,229.516,343.649,228.689,343.649,227.853z"/>
<g>
	<path style="fill:#CCCCCC;" d="M285.929,227.853c0-16.529-13.4-29.929-29.929-29.929s-29.929,13.4-29.929,29.929
		c0,0.841,0.044,1.671,0.111,2.494h59.636C285.885,229.524,285.929,228.693,285.929,227.853z"/>
	<polygon style="fill:#CCCCCC;" points="92.714,213.6 66.806,230.347 445.194,230.347 419.286,213.6 	"/>
</g>
<path style="fill:#999999;" d="M137.461,213.6c-0.77,5.474-1.177,11.063-1.177,16.746h239.432c0-5.683-0.407-11.271-1.177-16.746
	L137.461,213.6L137.461,213.6z"/>
<path style="fill:#50A9A9;" d="M169.522,213.6c-0.759,4.64-1.171,9.398-1.171,14.252c0,0.836,0.04,1.663,0.063,2.494h175.172
	c0.024-0.831,0.063-1.658,0.063-2.494c0-4.855-0.413-9.611-1.172-14.252L169.522,213.6L169.522,213.6z"/>
<path style="fill:#B2B2B2;" d="M229.676,213.6c-2.299,4.237-3.605,9.092-3.605,14.252c0,0.841,0.044,1.671,0.111,2.494h59.636
	c0.068-0.823,0.111-1.654,0.111-2.494c0-5.16-1.306-10.014-3.605-14.252L229.676,213.6L229.676,213.6z"/>
<path d="M403.507,0h-23.516c-4.427,0-8.017,3.588-8.017,8.017s3.589,8.017,8.017,8.017h23.516c48.625,0,88.184,39.56,88.184,88.184
	v15.499h-34.739c-4.427,0-8.017,3.588-8.017,8.017c0,4.428,3.589,8.017,8.017,8.017h34.739v86.58H447.56l-22.65-14.64l20.345-19.298
	c4.427-4.2,2.535-11.863-3.324-13.527l-26.41-7.508l14.785-23.135c3.286-5.142-0.397-12.12-6.482-12.33l-27.43-0.936l8.813-25.991
	c1.955-5.77-3.275-11.67-9.237-10.421l-26.858,5.632l2.37-27.34c0.526-6.064-5.957-10.559-11.455-7.919l-24.749,11.876
	l-4.247-27.122c-0.942-6.015-8.315-8.83-13.024-4.941l-21.172,17.482l-10.655-25.303c-2.361-5.61-10.192-6.566-13.826-1.667
	L256,57.275l-16.352-22.033c-3.635-4.898-11.464-3.945-13.826,1.667l-10.655,25.303L193.997,44.73
	c-4.708-3.889-12.083-1.072-13.024,4.941l-4.247,27.121l-24.749-11.878c-5.499-2.635-11.981,1.853-11.455,7.919l2.37,27.34
	l-26.858-5.632c-5.962-1.246-11.192,4.65-9.237,10.421l8.812,25.991l-27.431,0.936c-6.084,0.21-9.769,7.186-6.482,12.329
	l14.785,23.137l-26.41,7.507c-5.86,1.664-7.753,9.327-3.324,13.527l20.345,19.298l-24.636,15.924
	c-2.998,1.938-4.365,5.743-3.291,9.145c1.04,3.3,4.184,5.605,7.643,5.605h424.885v21.912c0,30.942-25.174,56.117-56.117,56.117
	h-94.063c-29.318,0-54.588,17.587-65.866,42.756h-75.228c-4.427,0-8.017,3.588-8.017,8.017c0,4.428,3.589,8.017,8.017,8.017h70.204
	c-0.816,4.333-1.26,8.795-1.26,13.361v19.24c0,48.624-39.559,88.184-88.184,88.184H20.309v-35.273H72.15
	c4.427,0,8.017-3.588,8.017-8.017s-3.589-8.017-8.017-8.017H20.309V298.221h77.495c4.427,0,8.017-3.588,8.017-8.017
	s-3.589-8.017-8.017-8.017H20.309v-94.597c0-4.428-3.589-8.017-8.017-8.017s-8.017,3.588-8.017,8.017v316.392
	c0,4.428,3.589,8.017,8.017,8.017h168.885c57.466,0,104.217-46.751,104.217-104.217v-19.24c0-30.942,25.173-56.117,56.117-56.117
	h94.063c39.784,0,72.15-32.366,72.15-72.15V104.217C507.724,46.751,460.973,0,403.507,0z M234.792,222.33
	c2.454-9.418,11.032-16.389,21.208-16.389s18.753,6.971,21.208,16.389H234.792z M293.54,222.33
	c-2.683-18.314-18.492-32.423-37.54-32.423s-34.857,14.108-37.54,32.423h-41.904c2.848-41.343,37.391-74.11,79.443-74.11
	s76.596,32.767,79.443,74.11H293.54z M404.014,209.629c0.227,2.448,1.565,4.656,3.63,5.991l10.379,6.708h-66.52
	c-2.871-50.19-44.606-90.143-95.502-90.143s-92.631,39.954-95.502,90.144H93.976l10.379-6.708c4.289-2.773,4.874-9.031,1.165-12.549
	L87.986,186.44l23.245-6.608c5.075-1.443,7.412-7.57,4.563-12.027l-13.016-20.37l24.16-0.824c5.279-0.181,9.017-5.575,7.319-10.586
	l-7.767-22.907l23.675,4.964c5.178,1.08,10.088-3.27,9.632-8.538l-2.089-24.093l21.801,10.463
	c4.772,2.284,10.572-0.771,11.389-5.988l3.738-23.875l18.633,15.387c4.077,3.368,10.445,1.795,12.493-3.071l9.384-22.286
	l14.416,19.424c3.152,4.248,9.723,4.249,12.875,0l14.417-19.425l9.385,22.288c2.048,4.867,8.414,6.437,12.493,3.071l18.633-15.387
	l3.739,23.875c0.816,5.213,6.619,8.279,11.389,5.988l21.801-10.462l-2.089,24.094c-0.456,5.27,4.454,9.617,9.632,8.538l23.674-4.964
	l-7.767,22.907c-1.698,5.011,2.039,10.406,7.319,10.586l24.159,0.824l-13.016,20.367c-2.849,4.457-0.512,10.585,4.563,12.028
	l23.245,6.609l-17.535,16.632C404.696,204.764,403.786,207.18,404.014,209.629z"/>
<path d="M12.292,152.852c4.427,0,8.017-3.588,8.017-8.017V67.34h86.046c4.427,0,8.017-3.588,8.017-8.017s-3.589-8.017-8.017-8.017
	H20.309V16.033h316.927c4.427,0,8.017-3.588,8.017-8.017S341.663,0,337.236,0H12.292C7.865,0,4.276,3.588,4.276,8.017v136.818
	C4.276,149.264,7.865,152.852,12.292,152.852z"/>
<path d="M106.889,452.676c0,4.428,3.589,8.017,8.017,8.017h94.063c4.427,0,8.017-3.588,8.017-8.017s-3.589-8.017-8.017-8.017
	h-94.063C110.479,444.66,106.889,448.248,106.889,452.676z"/>
<path d="M64.134,367.165c0,4.428,3.589,8.017,8.017,8.017h85.511c4.427,0,8.017-3.588,8.017-8.017c0-4.428-3.589-8.017-8.017-8.017
	H72.15C67.723,359.148,64.134,362.737,64.134,367.165z"/>
<path d="M311.582,298.221c4.427,0,8.017-3.588,8.017-8.017s-3.589-8.017-8.017-8.017H140.56c-4.427,0-8.017,3.588-8.017,8.017
	s3.589,8.017,8.017,8.017H311.582z"/>
<path d="M422.747,298.221c4.427,0,8.017-3.588,8.017-8.017s-3.589-8.017-8.017-8.017h-76.96c-4.427,0-8.017,3.588-8.017,8.017
	s3.589,8.017,8.017,8.017H422.747z"/>
<path d="M456.952,67.34c4.427,0,8.017-3.588,8.017-8.017s-3.589-8.017-8.017-8.017h-68.409c-4.427,0-8.017,3.588-8.017,8.017
	s3.589,8.017,8.017,8.017H456.952z"/>
<path d="M46.497,102.614c-4.427,0-8.017,3.588-8.017,8.017c0,4.428,3.589,8.017,8.017,8.017h42.756c4.427,0,8.017-3.588,8.017-8.017
	c0-4.428-3.589-8.017-8.017-8.017H46.497z"/>
<g>
</g>
<g>
</g>
<g>
</g>
<g>
</g>
<g>
</g>
<g>
</g>
<g>
</g>
<g>
</g>
<g>
</g>
<g>
</g>
<g>
</g>
<g>
</g>
<g>
</g>
<g>
</g>
<g>
</g>
</svg>
