<?xml version="1.0" encoding="iso-8859-1"?>
<!-- Generator: Adobe Illustrator 19.0.0, SVG Export Plug-In . SVG Version: 6.00 Build 0)  -->
<svg version="1.1" id="Layer_1" xmlns="http://www.w3.org/2000/svg" xmlns:xlink="http://www.w3.org/1999/xlink" x="0px" y="0px"
	 viewBox="0 0 503.607 503.607" style="enable-background:new 0 0 503.607 503.607;" xml:space="preserve">
<g transform="translate(1 1)">
	<path style="fill:#FD9808;" d="M284.377,452.246h-67.148l33.574-75.541L284.377,452.246z"/>
	<path style="fill:#FD7308;" d="M208.836,494.213l8.393-41.967h67.148l8.393,41.967H208.836z"/>
	<g>
		<path style="fill:#FD9808;" d="M160.993,328.023l-2.518-1.679l-8.393,33.574l67.148,92.328l33.574-75.541
			C215.551,376.705,183.656,356.561,160.993,328.023"/>
		<path style="fill:#FD9808;" d="M340.613,328.023c-22.662,28.538-54.557,48.682-89.81,48.682l33.574,75.541l67.148-92.328
			l-8.393-33.574L340.613,328.023z"/>
	</g>
	<path style="fill:#FCC309;" d="M474.069,424.548c-46.164-24.341-90.649-42.807-130.938-47.843h-4.197l-54.557,75.541l8.393,41.967
		h-3.357l0,0h204.8v-36.092C494.213,443.852,486.659,431.262,474.069,424.548"/>
	<path style="fill:#FD9808;" d="M474.069,424.548c-46.164-24.341-90.649-42.807-130.938-47.843h-4.197l-2.518,3.357
		c35.252,7.554,72.184,23.502,111.633,44.485c12.59,6.715,20.144,19.305,20.144,33.574v36.092h25.18v-36.092
		C494.213,443.852,486.659,431.262,474.069,424.548"/>
	<g>
		<path style="fill:#FCC309;" d="M162.672,376.705h-4.197c-40.289,5.036-83.934,23.502-130.098,47.843
			c-12.59,6.715-20.984,19.305-20.984,33.574v36.092h201.443l8.393-41.967L162.672,376.705z"/>
		<path style="fill:#FCC309;" d="M208.836,494.213h3.357l0,0H208.836z"/>
	</g>
	<path style="fill:#FFFFFF;" d="M53.557,424.548c39.449-20.984,76.38-36.931,111.633-44.485l-2.518-3.357h-4.197
		c-40.289,5.036-83.934,23.502-130.098,47.843c-12.59,6.715-20.984,19.305-20.984,33.574v36.092h25.18v-36.092
		C32.574,443.852,40.967,431.262,53.557,424.548"/>
	<path style="fill:#FFDD09;" d="M124.902,183.656v41.967c0,73.862,56.236,151.082,125.902,151.082s125.902-77.22,125.902-151.082
		v-41.967H124.902z"/>
	<path style="fill:#FD9808;" d="M351.525,183.656v41.967c0,69.666-49.521,141.849-113.311,150.243
		c4.197,0.839,8.393,0.839,12.59,0.839c69.666,0,125.902-77.22,125.902-151.082v-41.967H351.525z"/>
	<path style="fill:#FFFFFF;" d="M150.082,183.656v41.967c0,69.666,49.521,141.849,113.311,150.243
		c-4.197,0.839-8.393,0.839-12.59,0.839c-69.666,0-125.902-77.22-125.902-151.082v-41.967H150.082z"/>
	<path style="fill:#FCC309;" d="M284.377,32.574V24.18c0-9.233-7.554-16.787-16.787-16.787h-33.574
		c-9.233,0-16.787,7.554-16.787,16.787v8.393c-62.951,15.108-109.115,67.148-109.115,134.295v16.787h285.377v-16.787
		C393.492,99.721,347.328,47.682,284.377,32.574"/>
	<path style="fill:#FD9808;" d="M284.377,32.574V24.18c0-9.233-7.554-16.787-16.787-16.787h-25.18
		c9.233,0,33.574,7.554,33.574,16.787v8.393c62.951,15.108,92.328,67.148,92.328,134.295v16.787h25.18v-16.787
		C393.492,99.721,347.328,47.682,284.377,32.574"/>
	<path style="fill:#FFFFFF;" d="M217.229,32.574V24.18c0-9.233,7.554-16.787,16.787-16.787h25.18
		c-9.233,0-41.967,7.554-41.967,16.787V32.574c-62.111,15.108-83.934,67.148-83.934,134.295v16.787h-25.18v-16.787
		C108.115,99.721,154.279,47.682,217.229,32.574"/>
	<g>
		<path style="fill:#54C9FD;" d="M128.259,95.525l63.79,12.59l-12.59-61.272C158.475,58.593,140.849,75.38,128.259,95.525"/>
		<path style="fill:#54C9FD;" d="M373.348,95.525l-63.79,12.59l12.59-61.272C343.131,58.593,360.757,75.38,373.348,95.525"/>
	</g>
	<path d="M284.377,74.541c-5.036,0-8.393-3.357-8.393-8.393V32.574c0-5.036,3.357-8.393,8.393-8.393
		c5.036,0,8.393,3.357,8.393,8.393v33.574C292.77,71.184,289.413,74.541,284.377,74.541z"/>
	<path d="M217.229,74.541c-5.036,0-8.393-3.357-8.393-8.393V32.574c0-5.036,3.357-8.393,8.393-8.393s8.393,3.357,8.393,8.393v33.574
		C225.623,71.184,222.266,74.541,217.229,74.541z"/>
	<path d="M393.492,192.049H108.115c-5.036,0-8.393-3.357-8.393-8.393v-16.787c0-66.308,43.646-122.544,109.115-141.01V24.18
		c0-14.269,11.751-25.18,25.18-25.18h33.574c14.269,0,25.18,11.751,25.18,25.18v1.679c65.469,18.466,109.115,74.702,109.115,141.01
		v16.787C401.885,188.692,398.528,192.049,393.492,192.049z M116.508,175.262h268.59v-8.393c0-60.433-41.128-111.633-102.4-125.902
		c-4.197-0.839-6.715-4.197-6.715-8.393V24.18c0-5.036-4.197-8.393-8.393-8.393h-33.574c-5.036,0-8.393,4.197-8.393,8.393v8.393
		c0,4.197-2.518,7.554-6.715,8.393c-61.272,14.269-102.4,65.469-102.4,125.902V175.262z"/>
	<path d="M410.279,192.049H91.328c-5.036,0-8.393-3.357-8.393-8.393s3.357-8.393,8.393-8.393h318.951
		c5.036,0,8.393,3.357,8.393,8.393S415.315,192.049,410.279,192.049z"/>
	<path d="M250.803,385.098c-77.22,0-134.295-83.934-134.295-159.475v-41.967c0-5.036,3.357-8.393,8.393-8.393h251.803
		c5.036,0,8.393,3.357,8.393,8.393v41.967C385.098,301.164,328.023,385.098,250.803,385.098z M133.295,192.049v33.574
		c0,81.416,62.111,142.689,117.508,142.689s117.508-61.272,117.508-142.689v-33.574H133.295z"/>
	<path d="M284.377,460.639h-67.148c-2.518,0-5.875-1.679-6.715-4.197c-0.839-2.518-1.679-5.036-0.839-8.393l33.574-75.541
		c1.679-3.357,4.197-5.036,7.554-5.036s6.715,1.679,7.554,5.036l33.574,75.541c0.839,2.518,0.839,5.875-0.839,8.393
		C289.413,458.961,287.734,460.639,284.377,460.639z M230.659,443.852h41.128l-20.984-46.164L230.659,443.852z"/>
	<path d="M208.836,502.607c-2.518,0-5.036-0.839-6.715-3.357c-1.679-1.679-2.518-4.197-1.679-6.715l8.393-41.967
		c0.839-4.197,4.197-6.715,8.393-6.715h67.148c4.197,0,7.554,2.518,8.393,6.715l8.393,41.967c0.839,2.518,0,5.036-1.679,6.715
		c-1.679,2.518-4.197,3.357-6.715,3.357H208.836L208.836,502.607z M223.944,460.639l-5.036,25.18h63.79l-5.036-25.18H223.944z"/>
	<path d="M217.229,460.639c-2.518,0-5.036-1.679-6.715-3.357l-67.148-92.328c-1.679-1.679-1.679-5.036-1.679-6.715l8.393-33.574
		c0.839-2.518,2.518-4.197,5.036-5.875c2.518-0.839,5.036-0.839,7.554,0l2.518,0.839c0.839,0.839,1.679,1.679,2.518,2.518
		c23.502,29.377,52.879,46.164,83.095,46.164c2.518,0,5.875,1.679,6.715,4.197c0.839,2.518,1.679,5.036,0.839,8.393l-33.574,75.541
		c-0.839,2.518-4.197,5.036-6.715,5.036C218.069,460.639,218.069,460.639,217.229,460.639z M159.315,358.239l56.236,77.22
		l22.662-51.2c-26.859-3.357-53.718-17.626-75.541-41.128L159.315,358.239z"/>
	<path d="M284.377,460.639h-0.839c-3.357,0-5.875-2.518-6.715-5.036l-33.574-75.541c-0.839-2.518-0.839-5.875,0.839-8.393
		c1.679-2.518,4.197-3.357,6.715-3.357c31.056,0,60.433-15.948,83.095-46.164c0.839-0.839,1.679-1.679,2.518-2.518l2.518-0.839
		c2.518-0.839,5.036-1.679,7.554,0c2.518,0.839,4.197,3.357,5.036,5.875l8.393,33.574c0.839,2.518,0,5.036-1.679,6.715
		l-67.148,92.328C289.413,459.8,286.895,460.639,284.377,460.639z M263.393,384.259l22.662,51.2l56.236-77.22l-3.357-15.108
		C317.111,366.633,291.092,380.902,263.393,384.259z"/>
	<path d="M494.213,502.607h-204.8c-4.197,0-7.554-3.357-8.393-7.554c0-2.518,0.839-4.197,1.679-5.875l-6.715-35.252
		c-0.839-2.518,0-5.036,1.679-6.715l54.557-75.541c1.679-2.518,4.197-3.357,6.715-3.357h4.197h0.839
		c36.931,4.197,78.059,19.305,133.456,48.682l0,0c15.108,8.393,25.18,24.341,25.18,41.128v36.092
		C502.607,499.249,499.249,502.607,494.213,502.607z M299.485,485.82H485.82v-27.698c0-10.911-5.875-20.984-15.948-26.859
		c-52.879-27.698-92.328-41.967-126.741-47.003l-50.361,68.826L299.485,485.82z"/>
	<path d="M208.836,502.607H7.393c-5.036,0-8.393-3.357-8.393-8.393v-36.092c0-17.626,9.233-33.574,25.18-41.128
		c55.397-29.377,96.525-44.485,133.456-48.682h0.839h4.197c2.518,0,5.036,1.679,6.715,3.357l54.557,75.541
		c1.679,1.679,1.679,4.197,1.679,6.715l-8.393,41.967C216.39,500.089,213.033,502.607,208.836,502.607z M15.787,485.82h186.334
		l6.715-31.895l-50.361-68.826c-34.413,4.197-73.023,18.466-126.741,47.003c-10.072,5.036-15.948,15.108-15.948,26.02V485.82z"/>
	<path d="M212.193,502.607h-3.357c-5.036,0-8.393-3.357-8.393-8.393c0-5.036,3.357-8.393,8.393-8.393h3.357
		c5.036,0,8.393,3.357,8.393,8.393C220.587,499.249,216.39,502.607,212.193,502.607z"/>
	<path d="M192.049,116.508c-0.839,0-0.839,0-1.679,0l-63.79-12.59c-2.518-0.839-5.036-2.518-5.875-5.036
		c-0.839-2.518-0.839-5.036,0.839-7.554c13.43-20.984,31.895-38.61,54.557-51.2c2.518-1.679,5.036-1.679,7.554,0
		c2.518,0.839,4.197,3.357,5.036,5.875l12.59,61.272c0.839,2.518,0,5.875-2.518,7.554
		C196.246,115.669,194.567,116.508,192.049,116.508z M142.528,89.649l38.61,7.554l-7.554-36.931
		C161.833,68.666,150.921,78.738,142.528,89.649z"/>
	<path d="M309.557,116.508c-2.518,0-4.197-0.839-5.875-2.518c-1.679-1.679-2.518-5.036-2.518-7.554l12.59-61.272
		c0.839-2.518,2.518-4.197,4.197-5.875c2.518-0.839,5.036-0.839,7.554,0c22.662,12.59,41.128,30.216,54.557,51.2
		c1.679,2.518,1.679,5.036,0.839,7.554c-0.839,2.518-3.357,4.197-5.875,5.036l-63.79,13.43
		C310.397,116.508,310.397,116.508,309.557,116.508z M328.023,60.272l-7.554,36.931l38.61-7.554
		C350.685,78.738,339.774,68.666,328.023,60.272z"/>
</g>
<g>
</g>
<g>
</g>
<g>
</g>
<g>
</g>
<g>
</g>
<g>
</g>
<g>
</g>
<g>
</g>
<g>
</g>
<g>
</g>
<g>
</g>
<g>
</g>
<g>
</g>
<g>
</g>
<g>
</g>
</svg>
