<?xml version="1.0" encoding="iso-8859-1"?>
<!-- Generator: Adobe Illustrator 19.0.0, SVG Export Plug-In . SVG Version: 6.00 Build 0)  -->
<svg version="1.1" id="Layer_1" xmlns="http://www.w3.org/2000/svg" xmlns:xlink="http://www.w3.org/1999/xlink" x="0px" y="0px"
	 viewBox="0 0 512 512" style="enable-background:new 0 0 512 512;" xml:space="preserve">
<path style="fill:#666666;" d="M302.164,141.115h-88.131c-4.347,0-7.869,3.523-7.869,7.869s3.522,7.869,7.869,7.869h34.098v63.475
	c0,4.346,3.522,7.869,7.869,7.869s7.869-3.523,7.869-7.869v-63.475h38.295c4.347,0,7.869-3.523,7.869-7.869
	S306.511,141.115,302.164,141.115z"/>
<g>
	<path style="fill:#EB6836;" d="M300.066,120.131c-15.909,0-28.852,12.943-28.852,28.852s12.944,28.852,28.852,28.852
		s28.852-12.943,28.852-28.852S315.974,120.131,300.066,120.131z"/>
	<path style="fill:#EB6836;" d="M211.934,120.131c-15.909,0-28.852,12.943-28.852,28.852s12.944,28.852,28.852,28.852
		s28.852-12.943,28.852-28.852S227.843,120.131,211.934,120.131z"/>
</g>
<path id="SVGCleanerId_0" style="fill:#F7D04A;" d="M485.246,2.623H421.77c-4.347,0-7.869,3.523-7.869,7.869v178.361
	c0,13.017-10.59,23.607-23.607,23.607H121.18c-56.406,0-102.295,45.889-102.295,102.295V499.41c0,4.346,3.522,7.869,7.869,7.869
	h63.475c4.347,0,7.869-3.523,7.869-7.869V314.754c0-13.017,10.59-23.607,23.607-23.607H390.82
	c56.406,0,102.295-45.889,102.295-102.295V10.492C493.115,6.146,489.593,2.623,485.246,2.623z"/>
<g>
	<path id="SVGCleanerId_0_1_" style="fill:#F7D04A;" d="M485.246,2.623H421.77c-4.347,0-7.869,3.523-7.869,7.869v178.361
		c0,13.017-10.59,23.607-23.607,23.607H121.18c-56.406,0-102.295,45.889-102.295,102.295V499.41c0,4.346,3.522,7.869,7.869,7.869
		h63.475c4.347,0,7.869-3.523,7.869-7.869V314.754c0-13.017,10.59-23.607,23.607-23.607H390.82
		c56.406,0,102.295-45.889,102.295-102.295V10.492C493.115,6.146,489.593,2.623,485.246,2.623z"/>
</g>
<g>
	<path style="fill:#EB6836;" d="M222.426,193.049h-25.18c-4.347,0-7.869,3.523-7.869,7.869v100.721c0,4.346,3.522,7.869,7.869,7.869
		h25.18c4.347,0,7.869-3.523,7.869-7.869V200.918C230.295,196.572,226.773,193.049,222.426,193.049z"/>
	<path style="fill:#EB6836;" d="M314.754,193.049h-25.18c-4.347,0-7.869,3.523-7.869,7.869v100.721c0,4.346,3.522,7.869,7.869,7.869
		h25.18c4.347,0,7.869-3.523,7.869-7.869V200.918C322.623,196.572,319.101,193.049,314.754,193.049z"/>
	<path style="fill:#EB6836;" d="M504.131,34.098H403.41c-4.347,0-7.869,3.523-7.869,7.869v25.18c0,4.346,3.522,7.869,7.869,7.869
		h100.721c4.347,0,7.869-3.523,7.869-7.869v-25.18C512,37.622,508.478,34.098,504.131,34.098z"/>
	<path style="fill:#EB6836;" d="M108.59,434.885H7.869c-4.347,0-7.869,3.523-7.869,7.869v25.18c0,4.346,3.522,7.869,7.869,7.869
		H108.59c4.347,0,7.869-3.523,7.869-7.869v-25.18C116.459,438.408,112.937,434.885,108.59,434.885z"/>
</g>
<g>
	<path style="fill:#FD9D7E;" d="M230.295,200.918c0-4.346-3.522-7.869-7.869-7.869h-25.18c-4.347,0-7.869,3.523-7.869,7.869v11.541
		h40.918V200.918z"/>
	<path style="fill:#FD9D7E;" d="M189.377,301.639c0,4.346,3.522,7.869,7.869,7.869h25.18c4.347,0,7.869-3.523,7.869-7.869v-10.492
		h-40.918V301.639z"/>
	<path style="fill:#FD9D7E;" d="M281.705,301.639c0,4.346,3.522,7.869,7.869,7.869h25.18c4.347,0,7.869-3.523,7.869-7.869v-10.492
		h-40.918V301.639z"/>
	<path style="fill:#FD9D7E;" d="M322.623,200.918c0-4.346-3.522-7.869-7.869-7.869h-25.18c-4.347,0-7.869,3.523-7.869,7.869v11.541
		h40.918V200.918z"/>
	<path style="fill:#FD9D7E;" d="M403.41,34.098c-4.347,0-7.869,3.523-7.869,7.869v25.18c0,4.346,3.522,7.869,7.869,7.869h10.492
		V34.098H403.41z"/>
	<path style="fill:#FD9D7E;" d="M504.131,34.098h-11.016v40.918h11.016c4.347,0,7.869-3.523,7.869-7.869v-25.18
		C512,37.622,508.478,34.098,504.131,34.098z"/>
	<path style="fill:#FD9D7E;" d="M7.869,434.885c-4.347,0-7.869,3.523-7.869,7.869v25.18c0,4.346,3.522,7.869,7.869,7.869h11.016
		v-40.918H7.869z"/>
	<path style="fill:#FD9D7E;" d="M108.59,475.803c4.347,0,7.869-3.523,7.869-7.869v-25.18c0-4.346-3.522-7.869-7.869-7.869H98.098
		v40.918H108.59z"/>
</g>
<path style="fill:#62C9CC;" d="M262.37,318.528c-3.09-4.26-9.649-4.26-12.74,0c-6.381,8.798-62.351,86.981-62.351,122.128
	c0,37.893,30.828,68.721,68.721,68.721s68.721-30.828,68.721-68.721C324.721,405.509,268.752,327.326,262.37,318.528z"/>
<path style="fill:#50A9A9;" d="M278.557,491.016c-37.893,0-68.721-30.828-68.721-68.721c0-26.768,32.461-78.491,50.758-105.521
	c-3.475-2.504-8.45-1.712-10.965,1.754c-6.381,8.798-62.351,86.981-62.351,122.128c0,37.893,30.828,68.721,68.721,68.721
	c21.671,0,41.018-10.093,53.623-25.813C300.285,488.318,289.733,491.016,278.557,491.016z"/>
<g>
	<circle style="fill:#D4F2E8;" cx="264.393" cy="463.738" r="18.885"/>
	<circle style="fill:#D4F2E8;" cx="281.18" cy="421.77" r="12.59"/>
</g>
<g>
</g>
<g>
</g>
<g>
</g>
<g>
</g>
<g>
</g>
<g>
</g>
<g>
</g>
<g>
</g>
<g>
</g>
<g>
</g>
<g>
</g>
<g>
</g>
<g>
</g>
<g>
</g>
<g>
</g>
</svg>
