<?xml version="1.0" encoding="iso-8859-1"?>
<!-- Generator: Adobe Illustrator 19.0.0, SVG Export Plug-In . SVG Version: 6.00 Build 0)  -->
<svg version="1.1" id="Layer_1" xmlns="http://www.w3.org/2000/svg" xmlns:xlink="http://www.w3.org/1999/xlink" x="0px" y="0px"
	 viewBox="0 0 512 512" style="enable-background:new 0 0 512 512;" xml:space="preserve">
<path style="fill:#FEE7BE;" d="M429.13,152.016c-0.198,0-0.394,0.011-0.591,0.015c-1.952-63.207-53.971-114.027-117.644-114.027
	s-115.692,50.82-117.644,114.027c-0.197-0.004-0.393-0.015-0.591-0.015c-16.008,0-29.031,13.023-29.031,29.031
	s13.023,29.031,29.031,29.031c4.45,0,8.667-1.009,12.439-2.806c19.149,39.132,59.375,66.146,105.796,66.146
	s86.647-27.015,105.796-66.146c3.773,1.797,7.99,2.806,12.439,2.806c16.008,0,29.031-13.023,29.031-29.031
	S445.138,152.016,429.13,152.016z"/>
<path style="fill:#B2B2B2;" d="M310.895,231.192c-11.209,0-19.169-5.067-22.915-8.087c-3.405-2.745-3.939-7.729-1.195-11.133
	c2.745-3.402,7.73-3.939,11.133-1.195c1.708,1.378,6.393,4.581,12.977,4.581c2.194,0,7.85-0.447,12.976-4.579
	c3.405-2.745,8.388-2.211,11.133,1.193c2.745,3.405,2.211,8.388-1.193,11.133C325.083,230.14,315.708,231.192,310.895,231.192z"/>
<g>
	<path style="fill:#999999;" d="M359.456,191.076h-5.278c-4.373,0-7.918-3.545-7.918-7.918s3.545-7.918,7.918-7.918h5.278
		c4.373,0,7.918,3.545,7.918,7.918S363.828,191.076,359.456,191.076z"/>
	<path style="fill:#999999;" d="M267.612,191.076h-5.278c-4.373,0-7.918-3.545-7.918-7.918s3.545-7.918,7.918-7.918h5.278
		c4.373,0,7.918,3.545,7.918,7.918S271.985,191.076,267.612,191.076z"/>
</g>
<path style="fill:#666666;" d="M308.609,38.026c-64.688,1.233-116.63,55.297-115.4,119.985c0.46,24.175,8.171,47.207,22.375,66.772
	c1.847,2.545,4.937,4.018,8.032,3.454c3.829-0.697,6.52-4.008,6.52-7.794v-69.487l78.925,18.791c1.207,0.287,2.462,0.287,3.668,0
	l78.925-18.791v71.952c1.877,3.79,4.954,5.454,7.916,5.454c2.478,0,4.873-1.167,6.392-3.245
	c14.81-20.255,22.639-44.256,22.639-69.406C428.602,90.047,374.555,36.769,308.609,38.026z"/>
<path style="fill:#F7D04A;" d="M310.895,16.891c-64.904,0-117.707,52.804-117.707,117.707c0,4.373,3.545,7.918,7.918,7.918h219.579
	c4.373,0,7.918-3.545,7.918-7.918C428.602,69.694,375.798,16.891,310.895,16.891z"/>
<g>
	<path style="fill:#F3B41B;" d="M220.107,134.598c0-60.353,45.66-110.232,104.247-116.933c-4.419-0.505-8.908-0.774-13.46-0.774
		c-64.904,0-117.707,52.804-117.707,117.707c0,4.373,3.545,7.918,7.918,7.918h26.92
		C223.652,142.515,220.107,138.971,220.107,134.598z"/>
	<path style="fill:#F3B41B;" d="M332.008,0h-42.227c-4.373,0-7.918,3.545-7.918,7.918V121.93c0,4.373,3.545,7.918,7.918,7.918
		h42.227c4.373,0,7.918-3.545,7.918-7.918V7.918C339.926,3.545,336.381,0,332.008,0z"/>
</g>
<rect x="292.421" style="fill:#F7D04A;" width="36.948" height="119.291"/>
<path style="fill:#F3B41B;" d="M434.889,136.996c-0.846-3.571-4.035-6.093-7.704-6.093H194.606c-3.671,0-6.859,2.522-7.704,6.093
	c-0.846,3.571,0.874,7.256,4.154,8.901c37.414,18.77,77.733,28.288,119.839,28.288s82.425-9.518,119.84-28.288
	C434.015,144.252,435.733,140.568,434.889,136.996z"/>
<path style="fill:#F7D04A;" d="M441.798,114.012H179.992c-4.373,0-7.918,3.545-7.918,7.918v21.113c0,4.373,3.545,7.918,7.918,7.918
	h261.806c4.373,0,7.918-3.545,7.918-7.918V121.93C449.715,117.557,446.171,114.012,441.798,114.012z"/>
<path style="fill:#F2F2F2;" d="M405.905,268.14H215.885c-21.829,0-39.588,17.758-39.588,39.588v196.355
	c0,4.373,3.545,7.918,7.918,7.918h253.361c4.373,0,7.918-3.545,7.918-7.918V307.728C445.493,285.899,427.734,268.14,405.905,268.14z
	"/>
<path style="fill:#E5E5E5;" d="M215.885,268.14c-21.829,0-39.588,17.758-39.588,39.588v196.355c0,4.373,3.545,7.918,7.918,7.918
	h221.436L229.242,268.14H215.885z"/>
<path style="fill:#EB6836;" d="M348.344,450.641l-10.557-126.68c-0.342-4.103-3.772-7.26-7.89-7.26h-38.004
	c-4.118,0-7.548,3.156-7.89,7.26l-10.557,126.68c-0.221,2.653,0.906,5.239,2.998,6.884l29.559,23.225c2.838,2.23,6.945,2.23,9.784,0
	l29.559-23.225C347.438,455.881,348.565,453.294,348.344,450.641z"/>
<path style="fill:#C74B38;" d="M337.787,323.961c-0.342-4.103-3.772-7.26-7.89-7.26h-38.004c-4.118,0-7.548,3.156-7.89,7.26
	l-1.023,12.27h55.829L337.787,323.961z"/>
<path style="fill:#EB6836;" d="M342.565,268.14h-63.34c-5.098,0-8.949,4.975-7.661,9.916l12.668,48.561h53.327l12.668-48.561
	C351.515,273.116,347.663,268.14,342.565,268.14z"/>
<path style="fill:#CCCCCC;" d="M466.898,228.781c-1.504-1.817-3.739-2.867-6.098-2.867h-46.449c-4.887,0-8.689,4.588-7.779,9.392
	l23.225,122.458c0.708,3.737,3.976,6.443,7.779,6.443c3.804,0,7.07-2.706,7.779-6.443l23.225-122.458
	C469.018,232.99,468.402,230.597,466.898,228.781z"/>
<path style="fill:#E5E5E5;" d="M484.025,251.249h-46.449c-4.373,0-7.918,3.545-7.918,7.918v206.911c0,0.724,0.1,1.425,0.286,2.091
	c2.068,15.454,15.098,26.94,30.856,26.94c15.74,0,28.759-11.46,30.849-26.888c0.191-0.682,0.293-1.401,0.293-2.143V259.167
	C491.942,254.794,488.397,251.249,484.025,251.249z"/>
<rect x="429.658" y="324.619" style="fill:#CCCCCC;" width="62.285" height="134.07"/>
<path style="fill:#F2F2F2;" d="M460.8,225.913c-17.172,0-31.142,13.971-31.142,31.142c0,17.172,13.971,31.142,31.142,31.142
	s31.142-13.971,31.142-31.142C491.942,239.884,477.972,225.913,460.8,225.913z"/>
<path style="fill:#CCCCCC;" d="M460.8,238.054c-10.478,0-19.002,8.525-19.002,19.002c0,10.478,8.525,19.002,19.002,19.002
	s19.002-8.525,19.002-19.002C479.802,246.578,471.278,238.054,460.8,238.054z"/>
<path id="SVGCleanerId_0" style="fill:#FEE7BE;" d="M487.192,337.814h-54.895c-13.098,0-23.753,10.655-23.753,23.753v59.118
	c0,13.098,10.655,23.753,23.753,23.753h54.895c13.098,0,23.753-10.655,23.753-23.753v-59.118
	C510.944,348.469,500.289,337.814,487.192,337.814z"/>
<g>
	<path id="SVGCleanerId_0_1_" style="fill:#FEE7BE;" d="M487.192,337.814h-54.895c-13.098,0-23.753,10.655-23.753,23.753v59.118
		c0,13.098,10.655,23.753,23.753,23.753h54.895c13.098,0,23.753-10.655,23.753-23.753v-59.118
		C510.944,348.469,500.289,337.814,487.192,337.814z"/>
</g>
<g>
	<path style="fill:#FFB973;" d="M449.715,371.068c0-4.373-3.545-7.918-7.918-7.918h-33.254v15.835h33.254
		C446.171,378.986,449.715,375.441,449.715,371.068z"/>
	<path style="fill:#FFB973;" d="M449.715,392.181c0-4.373-3.545-7.918-7.918-7.918h-33.254v15.835h33.254
		C446.171,400.099,449.715,396.554,449.715,392.181z"/>
	<path style="fill:#FFB973;" d="M449.715,413.295c0-4.373-3.545-7.918-7.918-7.918h-33.254v15.307c0,0.177,0.01,0.352,0.014,0.528
		h33.24C446.171,421.212,449.715,417.667,449.715,413.295z"/>
</g>
<path style="fill:#E5E5E5;" d="M229.608,293.476H45.922c-13.098,0-23.753,10.655-23.753,23.753v153.072
	c0,4.373,3.545,7.918,7.918,7.918h215.357c4.373,0,7.918-3.545,7.918-7.918V317.229
	C253.361,304.131,242.706,293.476,229.608,293.476z"/>
<path id="SVGCleanerId_1" style="fill:#62C9CC;" d="M253.361,317.229c0-13.098-10.655-23.753-23.753-23.753H45.922
	c-13.098,0-23.753,10.655-23.753,23.753v12.668h231.192V317.229z"/>
<path style="fill:#E5E5E5;" d="M22.169,329.897v140.404c0,4.373,3.545,7.918,7.918,7.918h215.357c4.373,0,7.918-3.545,7.918-7.918
	V329.897H22.169z"/>
<g>
	<path id="SVGCleanerId_1_1_" style="fill:#62C9CC;" d="M253.361,317.229c0-13.098-10.655-23.753-23.753-23.753H45.922
		c-13.098,0-23.753,10.655-23.753,23.753v12.668h231.192V317.229z"/>
</g>
<path style="fill:#F2F2F2;" d="M22.169,329.897v140.404c0,4.373,3.545,7.918,7.918,7.918h215.357c4.373,0,7.918-3.545,7.918-7.918
	V329.897H22.169z"/>
<path style="fill:#50A9A9;" d="M70.73,293.476H45.922c-13.098,0-23.753,10.655-23.753,23.753v12.668h24.808v-12.668
	C46.977,304.131,57.632,293.476,70.73,293.476z"/>
<path style="fill:#E5E5E5;" d="M46.977,470.301V329.897H22.169v140.404c0,4.373,3.545,7.918,7.918,7.918h24.808
	C50.522,478.219,46.977,474.674,46.977,470.301z"/>
<path style="fill:#62C9CC;" d="M266.557,462.384H8.973c-4.373,0-7.918,3.545-7.918,7.918v17.946
	C1.056,501.345,11.711,512,24.808,512h225.913c13.098,0,23.753-10.655,23.753-23.753v-17.946
	C274.474,465.928,270.929,462.384,266.557,462.384z"/>
<path style="fill:#666666;" d="M198.994,448.66H68.091c-4.373,0-7.918-3.545-7.918-7.918v-80.231c0-4.373,3.545-7.918,7.918-7.918
	c4.373,0,7.918,3.545,7.918,7.918v72.313h122.986c4.373,0,7.918,3.545,7.918,7.918S203.366,448.66,198.994,448.66z"/>
<path style="fill:#EB6836;" d="M91.311,419.103c-5.625,0-9.495-5.96-7.249-11.093l14.779-33.781
	c2.315-5.292,9.631-6.339,13.336-1.895l15.848,19.018l15-13.5c2.42-2.178,5.928-2.652,8.837-1.196l15.748,7.874l17.079-18.787
	c2.941-3.236,7.949-3.474,11.185-0.533c3.236,2.942,3.474,7.949,0.533,11.185l-21.113,23.225c-2.386,2.624-6.226,3.342-9.4,1.756
	l-16.287-8.143l-17.103,15.393c-3.291,2.962-8.547,2.582-11.379-0.816l-12.912-15.494l-9.645,22.044
	C97.268,417.33,94.361,419.103,91.311,419.103z"/>
<g>
</g>
<g>
</g>
<g>
</g>
<g>
</g>
<g>
</g>
<g>
</g>
<g>
</g>
<g>
</g>
<g>
</g>
<g>
</g>
<g>
</g>
<g>
</g>
<g>
</g>
<g>
</g>
<g>
</g>
</svg>
